<svg width="1008" height="528" viewBox="0 0 1008 528" fill="none" xmlns="http://www.w3.org/2000/svg">
<path d="M0 0H1008V445.2H0V0Z" fill="#EB1701"/>
<path d="M412.86 148.68C392.7 109.62 341.46 88.6201 268.8 88.6201C181.44 88.6201 128.1 118.44 128.1 168C128.1 199.5 152.88 220.08 204.96 233.52L227.64 239.4L249.48 245.28L272.16 251.16C273.42 251.58 274.68 252 276.36 252.84C284.76 256.2 289.38 260.4 289.38 265.86C289.38 276.78 274.26 283.5 251.16 283.5C214.62 283.5 196.14 275.94 186.06 257.88L87.3601 271.32C112.56 316.26 165.9 338.94 249.48 338.94C338.1 338.94 399 304.08 399 254.1C399 226.38 371.28 200.34 328.86 189.84L309.12 184.8L289.38 179.76L269.64 175.14C264.18 173.46 258.72 172.2 254.52 170.52C243.18 167.16 238.14 162.96 238.14 156.66C238.14 146.58 251.16 140.7 271.32 140.7C298.62 140.7 318.36 149.1 324.24 164.22L412.86 148.68Z" fill="white"/>
<path d="M662.34 171.78H574.56L555.24 253.26C548.52 280.56 535.5 294.42 515.76 294.42C505.26 294.42 499.8 289.8 499.8 282.24C499.8 279.72 499.8 277.62 502.32 266.28L524.58 172.62H435.54L411.6 274.26C409.08 286.44 406.56 296.94 406.56 302.4C406.56 323.4 433.86 340.62 468.72 340.62C504 340.62 525.84 330.96 546.84 305.34L539.28 336H622.86L662.34 171.78Z" fill="white"/>
<path d="M681.24 171.78L642.18 336H727.86L751.38 237.72C755.58 220.5 766.92 211.68 784.14 211.68C798.42 211.68 805.56 216.3 805.56 224.7C805.56 226.8 804.3 232.26 803.46 238.14L780.36 336.42H868.14L894.6 224.28C896.28 218.4 896.7 212.52 896.7 207.48C896.7 183.54 869.82 167.16 830.76 167.16C794.64 167.16 768.6 178.08 755.16 199.08L761.88 172.62L681.24 171.78Z" fill="white"/>
<path d="M486.238 112.443H470.698L461.458 151.503H440.878L450.118 112.443H434.998L437.518 101.103H488.338L486.238 112.443Z" fill="white"/>
<path d="M541.258 151.083H520.678L525.298 130.923H506.818L501.778 151.083H481.618L493.798 100.683H514.378L509.758 119.163H527.818L532.438 100.683H553.018L541.258 151.083Z" fill="white"/>
<path d="M610.978 112.023H580.738L579.058 120.003H604.258L601.738 130.503H576.538L574.018 139.323H605.938L603.418 151.083H550.918L563.098 100.683H613.918L610.978 112.023Z" fill="white"/>
<path d="M653.818 151.083H633.658L645.838 100.683H665.998L653.818 151.083Z" fill="white"/>
<path d="M716.398 130.083L724.378 151.083H703.378L697.078 132.183H688.678L684.058 151.083H663.898L675.658 100.683H706.738C720.598 100.683 731.518 104.463 731.518 114.963C731.518 122.943 726.478 127.563 716.398 130.083ZM700.858 111.603H693.298L691.198 121.683H699.178C704.218 121.683 710.938 120.843 710.938 116.643C710.518 112.443 705.898 111.603 700.858 111.603Z" fill="white"/>
<path d="M752.518 151.083H732.358L744.118 100.683H764.278L752.518 151.083Z" fill="white"/>
<path d="M808.798 115.803C807.118 112.023 802.498 111.183 797.878 111.183C794.938 111.183 791.158 112.023 791.158 114.543C791.158 116.223 792.838 116.643 794.518 117.483C796.618 118.323 799.558 118.743 801.658 119.163C804.178 120.003 806.698 120.843 810.058 120.843C818.038 122.523 824.758 127.983 824.758 134.283C824.758 146.463 809.218 151.503 793.678 151.503C778.978 151.503 765.958 147.723 760.078 137.643L780.658 134.703C783.178 139.323 788.218 139.743 794.098 139.743C797.458 139.743 802.078 138.903 802.078 135.963C802.078 133.443 796.618 132.183 793.678 131.763C781.918 128.823 768.898 126.723 768.898 115.803C768.898 104.043 783.178 99.4229 797.878 99.4229C810.478 99.4229 822.658 102.783 827.698 112.023L808.798 115.803Z" fill="white"/>
<path d="M885.238 151.083H864.658L869.278 130.923H850.798L845.758 151.083H825.598L837.358 100.683H857.938L853.318 119.163H871.798L875.998 100.683H896.578L885.238 151.083Z" fill="white"/>
</svg>
