<?xml version="1.0" encoding="utf-8"?>
<!-- Generator: Adobe Illustrator 19.2.1, SVG Export Plug-In . SVG Version: 6.00 Build 0)  -->
<svg version="1.1" id="Layer_2" xmlns="http://www.w3.org/2000/svg" xmlns:xlink="http://www.w3.org/1999/xlink" x="0px" y="0px"
	 viewBox="0 0 280 121" style="enable-background:new 0 0 280 121;" xml:space="preserve">
<style type="text/css">
	.st0{fill:#EB1701;}
	.st1{fill:#FFFFFF;}
</style>
<g>
	<polygon class="st0" points="0,0 280,0 280,121 0,121 	"/>
	<path class="st1" d="M113.7,37.6C107.5,25.5,91.9,19,69.5,19c-26.7,0-43.1,9.3-43.1,24.6c0,9.7,7.5,16.1,23.5,20.2l7,1.8l6.7,1.8
		l7,1.8c0.3,0.1,0.8,0.2,1.3,0.5c2.5,1,4,2.4,4,4c0,3.3-4.7,5.5-11.7,5.5c-11.2,0-16.9-2.3-20-7.9l-30.3,4.1
		c7.8,13.9,24.1,20.9,49.7,20.9c27.2,0,45.8-10.7,45.8-26.3c0-8.6-8.5-16.7-21.5-19.9l-6.1-1.5l-6.1-1.6l-6.1-1.5
		c-1.7-0.5-3.3-0.9-4.7-1.4c-3.4-1-5-2.4-5-4.2c0-3.1,4-4.9,10.2-4.9c8.3,0,14.4,2.6,16.2,7.3L113.7,37.6L113.7,37.6L113.7,37.6z"/>
	<path class="st1" d="M190.2,44.7h-26.9l-5.9,25.1c-2.1,8.5-6.1,12.7-12.1,12.7c-3.2,0-4.9-1.4-4.9-3.8c0-0.8,0-1.5,0.8-4.9l6.9-29
		h-27.3l-7.3,31.7c-0.8,3.8-1.5,7-1.5,8.7c0,6.5,8.3,11.8,19.1,11.8c10.9,0,17.5-3,24-10.9l-2.3,9.5h25.6L190.2,44.7L190.2,44.7
		L190.2,44.7z"/>
	<path class="st1" d="M196,44.7l-12,50.7h26.3l7.2-30.4c1.3-5.4,4.8-8.1,10.1-8.1c4.3,0,6.6,1.4,6.6,4c0,0.7-0.3,2.4-0.7,4.1
		l-7.1,30.4h27l8.1-34.6c0.5-1.8,0.7-3.7,0.7-5.1c0-7.4-8.2-12.5-20.2-12.5c-11.1,0-19.1,3.4-23.2,9.8l2.1-8.2L196,44.7L196,44.7
		L196,44.7z"/>
	<g>
		<path class="st1" d="M136.2,26.4h-4.8l-2.7,12h-6.4l2.9-12h-4.7l0.8-3.5h15.7L136.2,26.4z"/>
		<path class="st1" d="M153,38.3h-6.3l1.5-6.2h-5.7l-1.5,6.2h-6.2l3.7-15.5h6.3l-1.4,5.7h5.6l1.4-5.7h6.3L153,38.3z"/>
		<path class="st1" d="M174.5,26.3h-9.3l-0.6,2.4h7.8l-0.8,3.3h-7.8l-0.7,2.7h9.7l-0.8,3.5h-16l3.7-15.5h15.5L174.5,26.3z"/>
		<path class="st1" d="M187.7,38.3h-6.2l3.7-15.5h6.2L187.7,38.3z"/>
		<path class="st1" d="M206.9,31.9l2.4,6.5h-6.4l-1.9-5.8h-2.5l-1.4,5.8h-6.2l3.7-15.5h9.5c4.2,0,7.5,1.1,7.5,4.5
			C211.4,29.6,209.8,31.1,206.9,31.9z M202.1,26h-2.3l-0.7,3.1h2.4c1.6,0,3.5-0.2,3.5-1.6C205,26.4,203.5,26,202.1,26z"/>
		<path class="st1" d="M217.8,38.3h-6.2l3.7-15.5h6.2L217.8,38.3z"/>
		<path class="st1" d="M235.1,27.4c-0.5-1.1-1.9-1.5-3.3-1.5c-0.9,0-2.1,0.2-2.1,1c0,0.5,0.5,0.7,1,0.9c0.7,0.2,1.5,0.3,2.2,0.6
			c0.8,0.2,1.6,0.5,2.5,0.6c2.4,0.6,4.5,2.2,4.5,4.1c0,3.8-4.8,5.4-9.5,5.4c-4.6,0-8.5-1.1-10.3-4.3l6.3-0.9
			c0.8,1.4,2.3,1.6,4.1,1.6c1,0,2.4-0.2,2.4-1.1c0-0.8-1.7-1.1-2.5-1.3c-3.5-0.9-7.7-1.6-7.7-4.9c0-3.7,4.3-5,8.9-5
			c3.9,0,7.7,1,9.1,3.9L235.1,27.4z"/>
		<path class="st1" d="M258.5,38.3h-6.3l1.5-6.2H248l-1.5,6.2h-6.3l3.7-15.5h6.3l-1.4,5.7h5.6l1.4-5.7h6.3L258.5,38.3z"/>
	</g>
</g>
</svg>
