<svg width="72" height="48" viewBox="0 0 72 48" fill="none" xmlns="http://www.w3.org/2000/svg">
<path d="M14.6781 20H21.3219C24.618 20.718 27.1416 22.3077 28.8927 24.7692C30.7468 27.1282 31.6738 30.2051 31.6738 34C31.6738 37.7949 30.3863 41.0769 27.8112 43.8462C25.2361 46.6154 21.5794 48 16.8412 48C11.794 48 7.72532 46.359 4.63519 43.0769C1.54506 39.7949 0 34.9231 0 28.4615C0 19.7436 2.67811 12.9231 8.03433 8C13.3906 2.97436 21.4764 0.307694 32.2918 0V9.07693C27.0386 9.48718 22.97 10.4615 20.0858 12C17.2017 13.5385 15.3991 16.2051 14.6781 20ZM54.3863 20H61.03C64.3262 20.718 66.8498 22.3077 68.6009 24.7692C70.4549 27.1282 71.382 30.2051 71.382 34C71.382 37.7949 70.0944 41.0769 67.5193 43.8462C64.9442 46.6154 61.2876 48 56.5494 48C51.5021 48 47.4335 46.359 44.3433 43.0769C41.2532 39.7949 39.7082 34.9231 39.7082 28.4615C39.7082 19.7436 42.3863 12.9231 47.7425 8C53.0987 2.97436 61.1845 0.307694 72 0V9.07693C66.7468 9.48718 62.6781 10.4615 59.794 12C56.9099 13.5385 55.1073 16.2051 54.3863 20Z" fill="#0a0a0a"/>
</svg>
