<svg width="39" height="27" viewBox="0 0 39 27" fill="none" xmlns="http://www.w3.org/2000/svg">
  <path d="M10.4664 13.64C11.9364 13.99 13.0914 14.655 13.9314 15.635C14.7714 16.615 15.1914 17.98 15.1914 19.73C15.1914 21.76 14.5264 23.37 13.1964 24.56C11.8664 25.75 10.2214 26.345 8.26141 26.345C5.60141 26.345 3.60641 25.435 2.27641 23.615C1.01641 21.725 0.386407 19.415 0.386407 16.685C0.386407 14.515 0.701407 12.485 1.33141 10.595C1.96141 8.635 2.94141 6.92 4.27141 5.45C5.67141 3.98 7.42141 2.79 9.52141 1.88C11.6914 0.899998 14.3164 0.304998 17.3964 0.0949961V4.295C13.5464 4.855 10.7464 5.93999 8.99641 7.54999C7.31641 9.09 6.47641 11.12 6.47641 13.64H10.4664ZM31.1514 13.64C32.6214 13.99 33.7764 14.655 34.6164 15.635C35.4564 16.615 35.8764 17.98 35.8764 19.73C35.8764 21.76 35.2114 23.37 33.8814 24.56C32.5514 25.75 30.9064 26.345 28.9464 26.345C26.2864 26.345 24.2914 25.435 22.9614 23.615C21.7014 21.725 21.0714 19.415 21.0714 16.685C21.0714 14.515 21.3864 12.485 22.0164 10.595C22.6464 8.635 23.6264 6.92 24.9564 5.45C26.3564 3.98 28.1064 2.79 30.2064 1.88C32.3764 0.899998 35.0014 0.304998 38.0814 0.0949961V4.295C34.2314 4.855 31.4314 5.93999 29.6814 7.54999C28.0014 9.09 27.1614 11.12 27.1614 13.64H31.1514Z" fill="#0A0A0A"/>
</svg>
