<svg width="57px" height="49px" viewBox="0 0 57 49" version="1.1" xmlns="http://www.w3.org/2000/svg" xmlns:xlink="http://www.w3.org/1999/xlink">
    <defs></defs>
    <g id="Page-3" stroke="none" stroke-width="1" fill="none" fill-rule="evenodd">
        <g id="mobile-sign-in" transform="translate(-159.000000, -1121.000000)" fill-rule="nonzero" fill="#D2D6D7">
            <g id="icnBanana" transform="translate(159.000000, 1121.000000)">
                <path d="M31.1739905,0 C31.1739905,0 29.35868,0.0263375 29.6508843,1.9140625 C29.9437633,3.8017875 30.8811114,6.513325 29.387698,8.480675 C27.8936097,10.448025 26.3705035,13.2398 25.9892209,16.5895625 C25.608613,19.939325 25.7017405,27.3609875 24.6267258,30.7860875 C23.7082731,33.715675 20.6586865,38.01665 14.9765624,38.6015875 C9.29376334,39.186525 6.74558033,38.7884 2.08785811,35.2781625 C1.23823883,34.6142125 -0.343578162,35.251825 0.0667224918,35.75775 C0.477023145,36.261225 4.25543328,41.4999375 10.2311114,42.9895375 C16.2061146,44.4779125 22.8262617,42.6440875 26.0769496,39.7187875 C29.1380084,36.9649875 29.313466,35.597275 29.7237666,36.369025 C30.1333924,37.13955 33.2241441,48.2790875 46.1708843,48.8107375 C52.9226245,48.8107375 55.2217928,45.7543625 55.9539905,45.169425 C56.6861882,44.5844875 55.3972503,43.62715 53.5805901,44.292325 C51.7659545,44.956275 48.1333091,47.3487 43.9736163,42.403375 C39.8145983,37.459275 39.7849055,35.0368375 39.7849055,35.0368375 C39.7849055,35.0368375 42.496399,34.9425125 44.941332,33.6979125 C48.075948,32.1029625 49.6354954,29.8557 50.103832,26.9040625 C50.5728434,23.95365 50.3616196,24.537975 50.5728434,23.95365 C50.6949888,23.6131 51.0027143,23.3417625 50.388613,23.288475 C49.7738369,23.2351875 48.9242176,23.4483375 48.0745983,24.405675 C47.224979,25.3624 45.9144463,27.914075 42.8979267,28.8456875 C41.0994872,29.4006125 39.931345,29.4294 39.6087731,29.4030625 C39.2868761,29.376725 39.4042977,29.4294 39.2578581,29.0049375 C39.1107437,28.57925 38.7301359,27.357925 38.7301359,25.3624 C38.7301359,23.369325 38.2469529,12.5617625 37.0167258,10.7671375 C35.7864986,8.9725125 34.6440003,8.2546625 34.1614921,7.61705 C33.6783091,6.978825 33.2383156,4.545975 33.2383156,2.951025 C33.2389905,1.356075 33.459662,0.079625 31.1739905,0 Z" id="Banana"></path>
            </g>
        </g>
    </g>
</svg>