<svg xmlns="http://www.w3.org/2000/svg" viewBox="0 0 100 100"><path fill="#FFF" d="M5.5 1.3C6.5.3 7.9 0 9.2 0H0v8.2c0-1.3.7-2.6 1.7-3.6l3.8-3.3zM1.7 94.6c-1-1-1.7-2.4-1.7-3.7v9.1h9.2c-1.3 0-2.6-.7-3.6-1.7l-3.9-3.7zm37.9-45L1.7 11.8C.7 10.8 0 9.5 0 8.2v82.6c0-1.3.7-2.6 1.7-3.6l37.9-37.6zM91.8 0c1.3 0 2.6.3 3.6 1.3l3.3 3.5c1 1 1.2 2.2 1.2 3.5V0h-8.1zM50.5 39L88.2 1.3c1-1 2.3-1.3 3.6-1.3H9.2c1.3 0 2.6.3 3.6 1.3L50.5 39zm10.7 10.6l37.5 37.7c1 1 1.3 2.3 1.3 3.6V8.2c0 1.3-.2 2.6-1.2 3.6L61.2 49.6zm34.1 48.7c-1 1-2.2 1.7-3.5 1.7h8.2v-9.1c0 1.3-.2 2.6-1.2 3.6l-3.5 3.8zM50.5 60.4L12.8 98.3c-1 1-2.3 1.7-3.6 1.7h82.6c-1.3 0-2.6-.7-3.6-1.7L50.5 60.4z"/></svg>