<svg id="Layer_1" xmlns="http://www.w3.org/2000/svg" viewBox="0 0 640 640"><style>.st0{fill:#FFF}</style><g id="g3"><path id="path5" class="st0" d="M240 0H0v240.7C0 108.3 107.4 0 240 0z"/><path id="path7" class="st0" d="M240 0c132.6 0 240 107.5 240 240 0 49.7-15.1 95.8-41 134.2l168.3 168.2s28.3 28.2 0 56.6L579 627.2c-28.3 28.2-56.6 0-56.6 0L349 454c-32.7 16.7-69.8 26.1-109 26.1-132.6 0-240-107.5-240-240V640h640V0H240z"/><ellipse id="ellipse9" class="st0" cx="240.1" cy="240.7" rx="160" ry="159.8"/></g></svg>